<?xml version="1.0" encoding="UTF-8"?>
<svg width="19px" height="19px" viewBox="0 0 19 19" version="1.1" xmlns="http://www.w3.org/2000/svg" xmlns:xlink="http://www.w3.org/1999/xlink">
    <!-- Generator: Sketch 48.2 (47327) - http://www.bohemiancoding.com/sketch -->
    <title>clock 2</title>
    <desc>Created with Sketch.</desc>
    <defs>
        <path d="M10.5,18 C14.6421356,18 18,14.6421356 18,10.5 C18,6.35786438 14.6421356,3 10.5,3 C6.35786438,3 3,6.35786438 3,10.5 C3,14.6421356 6.35786438,18 10.5,18 Z M10.5,20 C5.25329488,20 1,15.7467051 1,10.5 C1,5.25329488 5.25329488,1 10.5,1 C15.7467051,1 20,5.25329488 20,10.5 C20,15.7467051 15.7467051,20 10.5,20 Z M11.5,10 L11.5,7 C11.5,6.44771525 11.0522847,6 10.5,6 C9.94771525,6 9.5,6.44771525 9.5,7 L9.5,12 L14.5,12 C15.0522847,12 15.5,11.5522847 15.5,11 C15.5,10.4477153 15.0522847,10 14.5,10 L11.5,10 Z" id="path-1"></path>
    </defs>
    <g id="Icons/Clock-2" stroke="none" stroke-width="1" fill="none" fill-rule="evenodd" transform="translate(-1.000000, -1.000000)">
        <g id="icon">
            <mask id="mask-2" fill="white">
                <use xlink:href="#path-1"></use>
            </mask>
            <use id="clock-2" fill="#000000" fill-rule="nonzero" xlink:href="#path-1"></use>
        </g>
    </g>
</svg>